<svg viewBox="0 0 28 28" fill="none" xmlns="http://www.w3.org/2000/svg">
<circle cx="14" cy="14" r="13.5" stroke="#00A052"/>
<path d="M18.1229 6H9.87429C9.04715 6 8.37454 6.67262 8.37454 7.49975V14.9985H7.25119C6.62654 14.9985 6.07768 15.3749 5.85231 15.9576C5.62695 16.5402 5.78037 17.1877 6.24867 17.6137L12.9897 23.6063C13.2784 23.8692 13.6398 23.9999 14.0008 23.9999C14.36 23.9999 14.7177 23.8707 15.0011 23.6127L21.7546 17.6077C22.2165 17.1877 22.3699 16.5398 22.1449 15.9576C21.9199 15.3753 21.3707 14.9985 20.746 14.9985H19.6227V7.49975C19.6227 6.67262 18.95 6 18.1229 6V6ZM20.7521 16.4922L13.9926 22.4912L7.25119 16.4983H8.37454C9.20167 16.4983 9.87429 15.8256 9.87429 14.9985V7.49975H18.1229V14.9985C18.1229 15.8256 18.7955 16.4983 19.6227 16.4983L20.7521 16.4922Z" fill="#00A052"/>
<path d="M12.5037 11.999C12.9177 11.999 13.2536 11.6631 13.2536 11.2491C13.2536 10.8352 12.9177 10.4993 12.5037 10.4993H12.1288C11.7148 10.4993 11.3789 10.8352 11.3789 11.2491C11.3789 11.6631 11.7148 11.999 12.1288 11.999H12.5037Z" fill="#00A052"/>
<path d="M15.8787 14.9985H15.5038C15.0898 14.9985 14.7539 15.3344 14.7539 15.7484C14.7539 16.1623 15.0898 16.4982 15.5038 16.4982H15.8787C16.2926 16.4982 16.6286 16.1623 16.6286 15.7484C16.6286 15.3344 16.2926 14.9985 15.8787 14.9985Z" fill="#00A052"/>
<path d="M16.0294 11.4688C15.7369 11.1761 15.2614 11.1761 14.9691 11.4688L11.9696 14.4683C11.6768 14.7612 11.6768 15.2358 11.9696 15.5287C12.1158 15.6753 12.3077 15.7484 12.4997 15.7484C12.6918 15.7484 12.8836 15.6753 13.0299 15.5287L16.0294 12.5292C16.3222 12.2363 16.3222 11.7617 16.0294 11.4688Z" fill="#00A052"/>
</svg>
