<svg viewBox="0 0 10 6" fill="none" xmlns="http://www.w3.org/2000/svg">
<path d="M5.3902 5.77793L9.84025 1.3278C9.94325 1.22488 10 1.08748 10 0.940979C10 0.794476 9.94325 0.657079 9.84025 0.554153L9.51261 0.226432C9.29911 0.0131814 8.95212 0.0131814 8.73895 0.226432L5.00207 3.96331L1.26105 0.222285C1.15804 0.119359 1.02072 0.0625301 0.874302 0.0625301C0.727717 0.0625301 0.590401 0.119359 0.487312 0.222285L0.159754 0.550006C0.0567474 0.653013 -3.18131e-08 0.790329 -3.82169e-08 0.936832C-4.46208e-08 1.08333 0.0567474 1.22073 0.159754 1.32366L4.61386 5.77793C4.7172 5.8811 4.85516 5.93777 5.00183 5.93744C5.14906 5.93777 5.28695 5.8811 5.3902 5.77793Z" fill="#00A052"/>
</svg>
