<svg viewBox="0 0 20 20" fill="none" xmlns="http://www.w3.org/2000/svg">
<path d="M4.44459 9.2196L13.3448 0.31951C13.5507 0.113495 13.8255 0 14.1185 0C14.4115 0 14.6863 0.113495 14.8922 0.31951L15.5476 0.974789C15.9741 1.40178 15.9741 2.09576 15.5476 2.52209L8.07383 9.99585L15.5559 17.4779C15.7617 17.6839 15.8754 17.9586 15.8754 18.2514C15.8754 18.5446 15.7617 18.8192 15.5559 19.0254L14.9004 19.6805C14.6944 19.8865 14.4198 20 14.1268 20C13.8338 20 13.559 19.8865 13.3531 19.6805L4.44459 10.7723C4.23825 10.5656 4.12492 10.2897 4.12557 9.99634C4.12492 9.70187 4.23825 9.4261 4.44459 9.2196Z" fill="#00A052"/>
</svg>
