<svg viewBox="0 0 20 20" fill="none" xmlns="http://www.w3.org/2000/svg">
<path d="M15.5554 9.2196L6.65515 0.31951C6.4493 0.113495 6.17451 0 5.8815 0C5.58849 0 5.3137 0.113495 5.10785 0.31951L4.45241 0.974789C4.02591 1.40178 4.02591 2.09576 4.45241 2.52209L11.9262 9.99585L4.44411 17.4779C4.23826 17.6839 4.1246 17.9586 4.1246 18.2514C4.1246 18.5446 4.23826 18.8192 4.44411 19.0254L5.09955 19.6805C5.30557 19.8865 5.5802 20 5.87321 20C6.16621 20 6.44101 19.8865 6.64686 19.6805L15.5554 10.7723C15.7617 10.5656 15.8751 10.2897 15.8744 9.99634C15.8751 9.70187 15.7617 9.4261 15.5554 9.2196Z" fill="#00A052"/>
</svg>
