<svg viewBox="0 0 20 20" fill="none" xmlns="http://www.w3.org/2000/svg">
<g clip-path="url(#clip0)">
<path d="M19.7656 3.10937C19.5781 2.89452 19.3086 2.76952 19.0234 2.76952H5.17187C4.6328 2.76952 4.1953 3.20702 4.1953 3.74608C4.1953 4.28515 4.6328 4.72265 5.17187 4.72265H17.8828L17.0312 10.2344C16.9375 10.8516 16.4141 11.3008 15.7891 11.3008H3.55858L1.9414 0.828115C1.85937 0.292959 1.35937 -0.0703221 0.828115 0.0117091C0.292959 0.0937404 -0.0703221 0.59374 0.0117091 1.12499L2.23827 15.5312C2.32421 16.0859 2.60546 16.5937 3.03124 16.9609C3.45702 17.3281 4.0039 17.5273 4.56249 17.5273H6.09374V19.0234C6.09374 19.5625 6.53124 20 7.0703 20C7.60937 20 8.04687 19.5625 8.04687 19.0234V17.5273H13.7578V19.0234C13.7578 19.5625 14.1953 20 14.7344 20C15.2734 20 15.7109 19.5625 15.7109 19.0234V17.5273H17.5937C18.1328 17.5273 18.5703 17.0898 18.5703 16.5508C18.5703 16.0117 18.1328 15.5742 17.5937 15.5742H4.56249C4.36327 15.5742 4.1953 15.4297 4.16405 15.2344L3.85937 13.2539H15.7891C16.5547 13.2539 17.2969 12.9805 17.8789 12.4805C18.4609 11.9805 18.8437 11.2891 18.9609 10.5351L19.9883 3.89452C20.0312 3.60937 19.9492 3.32421 19.7656 3.10937Z" fill="#FFFFFF"/>
</g>
<defs>
<clipPath id="clip0">
<rect width="20" height="20" fill="white"/>
</clipPath>
</defs>
</svg>
