<svg viewBox="0 0 30 30" fill="none" xmlns="http://www.w3.org/2000/svg">
<circle cx="15" cy="15" r="14.5" stroke="#00A052"/>
<path d="M21.377 6.46553C21.0757 6.32678 20.7208 6.38073 20.4743 6.60269L19.3045 7.63849L17.713 6.21483C17.3932 5.92839 16.9092 5.92839 16.5894 6.21483L14.9992 7.63715L13.4086 6.21483C13.0887 5.92839 12.6046 5.92839 12.2848 6.21483L10.6928 7.63849L9.52195 6.60273C9.17645 6.29563 8.6474 6.32678 8.3403 6.67227C8.20281 6.82696 8.12749 7.02713 8.12893 7.23408V22.7659C8.12619 23.2288 8.49925 23.6063 8.96217 23.6091C9.16916 23.6103 9.36932 23.5348 9.52405 23.3973L10.6939 22.3615L12.2854 23.7852C12.6051 24.0716 13.0892 24.0716 13.409 23.7852L14.9992 22.3627L16.5897 23.785C16.9095 24.0714 17.3936 24.0714 17.7134 23.785L19.3054 22.3614L20.4763 23.3971C20.8218 23.7043 21.3508 23.6733 21.6579 23.3279C21.7956 23.1731 21.8709 22.9728 21.8694 22.7658V7.23408C21.8736 6.90249 21.6799 6.60028 21.377 6.46553ZM19.8622 21.73C19.5424 21.4467 19.061 21.448 18.7428 21.733L17.1513 23.1566L15.561 21.7343C15.2412 21.4478 14.7571 21.4478 14.4373 21.7343L12.8469 23.1566L11.2547 21.733C10.9376 21.448 10.4571 21.4467 10.1385 21.7299L8.9719 22.7655V20.5187L8.96769 7.23429L10.1362 8.26984C10.456 8.55312 10.9373 8.55186 11.2556 8.26685L12.8471 6.84323L14.4374 8.26554C14.7572 8.55199 15.2413 8.55199 15.5611 8.26554L17.1515 6.84323L18.7437 8.26685C19.0607 8.55182 19.5412 8.55312 19.8598 8.26988L21.0265 7.23408V17.9109L21.0307 22.7655L19.8622 21.73Z" fill="#00A052"/>
<path d="M18.9943 14.5784H11.0035C10.7707 14.5784 10.582 14.7671 10.582 14.9999C10.582 15.2327 10.7707 15.4214 11.0035 15.4214H18.9943C19.2271 15.4214 19.4158 15.2327 19.4158 14.9999C19.4158 14.7671 19.2271 14.5784 18.9943 14.5784Z" fill="#00A052"/>
<path d="M15.201 12.0495H11.0035C10.7707 12.0495 10.582 12.2382 10.582 12.471C10.582 12.7038 10.7707 12.8925 11.0035 12.8925H15.201C15.4337 12.8925 15.6224 12.7038 15.6224 12.471C15.6224 12.2382 15.4337 12.0495 15.201 12.0495Z" fill="#00A052"/>
<path d="M18.9943 17.1074H11.0035C10.7707 17.1074 10.582 17.2961 10.582 17.5288C10.582 17.7616 10.7707 17.9503 11.0035 17.9503H18.9943C19.2271 17.9503 19.4158 17.7616 19.4158 17.5288C19.4158 17.2961 19.2271 17.1074 18.9943 17.1074Z" fill="#00A052"/>
</svg>
