<svg viewBox="0 0 80 80" fill="none" xmlns="http://www.w3.org/2000/svg">
<path d="M39.9999 0C17.9086 0 0 17.9086 0 39.9999C0 62.0912 17.9086 79.9998 39.9999 79.9998C62.0912 79.9998 79.9998 62.0912 79.9998 39.9999C79.9764 17.9185 62.0815 0.0236049 39.9999 0Z" fill="#E21F25"/>
<path d="M40.2132 36.1431L33.4635 29.3934C32.4993 28.4292 30.7637 28.2363 29.6066 29.3934C28.6424 30.3576 28.4495 32.0933 29.6066 33.2503L36.3563 40L29.6066 46.7497C28.6424 47.7139 28.4495 49.4495 29.6066 50.6066C30.7637 51.7637 32.3065 51.7637 33.4635 50.6066L40.2132 43.8569L46.9629 50.6066C47.9271 51.5708 49.6627 51.7637 50.8198 50.6066C51.3983 50.0281 51.5912 49.4495 51.5912 48.6781C51.5912 47.9067 51.3983 47.3282 50.8198 46.7497L44.0701 40L50.8198 33.2503C51.3983 32.6718 51.5912 32.0933 51.5912 31.3219C51.5912 30.5505 51.3983 29.9719 50.8198 29.3934C49.8556 28.4292 48.1199 28.2363 46.9629 29.3934L40.2132 36.1431Z" fill="#FEFDFD"/>
</svg>
