<svg viewBox="0 0 80 80" fill="none" xmlns="http://www.w3.org/2000/svg">
<path d="M39.9999 0C17.9086 0 0 17.9086 0 39.9999C0 62.0912 17.9086 79.9998 39.9999 79.9998C62.0912 79.9998 79.9998 62.0912 79.9998 39.9999C79.9764 17.9185 62.0815 0.0236049 39.9999 0Z" fill="#00A052"/>
<path d="M59.9069 27.0892C58.7997 26.0198 57.0444 26.0198 55.9373 27.0892L34.8923 47.095L26.6265 38.8292C25.5303 37.6942 23.7215 37.6629 22.5866 38.7591C21.4515 39.8553 21.4202 41.6642 22.5164 42.799C22.5394 42.8228 22.5628 42.8463 22.5866 42.8692L32.8723 53.1549C33.988 54.2704 35.7967 54.2704 36.9123 53.1549L59.9773 31.129C61.0735 29.9941 61.042 28.1854 59.9069 27.0892Z" fill="white"/>
</svg>
