<svg viewBox="0 0 751 101" fill="none" xmlns="http://www.w3.org/2000/svg">
<mask id="mask0_1251_10079" style="mask-type:alpha" maskUnits="userSpaceOnUse" x="0" y="0" width="751" height="101">
<path d="M0 20C0 8.95431 8.9543 0 20 0H751V81C751 92.0457 742.046 101 731 101H0V20Z" fill="url(#paint0_linear_1251_10079)"/>
</mask>
<g mask="url(#mask0_1251_10079)">
<path d="M0 20C0 8.95431 8.9543 0 20 0H751V81C751 92.0457 742.046 101 731 101H0V20Z" fill="url(#paint1_linear_1251_10079)" fill-opacity="0.1" stroke="#00A052" stroke-width="2" stroke-linecap="round" stroke-linejoin="round" stroke-dasharray="10 10"/>
<path opacity="0.1" d="M618.853 9.22845C620.867 7.07548 632.576 -5.17233 650.629 -7.11837C677.794 -10.0867 697.219 12.4641 701.214 17.1383C722.574 41.9858 718.931 72.8795 718.173 79.166C714.536 109.677 695.506 128.137 689.558 133.707C683.61 139.277 664.38 156.867 634.96 158.559C624.323 159.173 601.145 160.517 584.972 143.45C583.808 142.225 567.952 125.052 571.568 105.11C574.461 89.157 586.546 89.6033 595.972 66.602C600.716 54.8934 598.415 52.8837 605.077 35.5838C609.904 22.8399 612.515 16.0881 618.853 9.22845Z" fill="#12B55E"/>
</g>
<defs>
<linearGradient id="paint0_linear_1251_10079" x1="-94.8631" y1="-23.9875" x2="393.401" y2="500.497" gradientUnits="userSpaceOnUse">
<stop stop-color="#13C264"/>
<stop offset="1" stop-color="#11AB59"/>
</linearGradient>
<linearGradient id="paint1_linear_1251_10079" x1="-94.8631" y1="-23.9875" x2="393.401" y2="500.497" gradientUnits="userSpaceOnUse">
<stop stop-color="#13C264"/>
<stop offset="1" stop-color="#11AB59"/>
</linearGradient>
</defs>
</svg>
