<svg viewBox="0 0 25 25" fill="none" xmlns="http://www.w3.org/2000/svg">
<path d="M19.8657 21.3172L3.66114 5.11266C3.25455 4.70607 3.25455 4.04611 3.66114 3.63952C4.06772 3.23294 4.72769 3.23294 5.13427 3.63952L21.3388 19.8441C21.7454 20.2506 21.7454 20.9106 21.3388 21.3172C20.9322 21.7238 20.2723 21.7238 19.8657 21.3172Z" fill="#C4C4C4"/>
<path d="M21.3388 5.11267L5.13427 21.3172C4.72768 21.7238 4.06772 21.7238 3.66113 21.3172C3.25454 20.9106 3.25454 20.2506 3.66113 19.8441L19.8657 3.63953C20.2722 3.23294 20.9322 3.23294 21.3388 3.63953C21.7454 4.04612 21.7454 4.70608 21.3388 5.11267Z" fill="#C4C4C4"/>
</svg>
