<svg viewBox="0 0 15 15" fill="none" xmlns="http://www.w3.org/2000/svg">
<path d="M5.46846 8.27542C5.46846 8.08751 5.31605 7.93529 5.128 7.93529H3.93989C3.75205 7.93529 3.59961 8.08751 3.59961 8.27542V9.46337C3.59961 9.65152 3.75205 9.8038 3.93989 9.8038H5.128C5.31605 9.8038 5.46846 9.65152 5.46846 9.46337V8.27542Z" fill="#ED1B24"/>
<path d="M8.43509 8.27542C8.43509 8.08751 8.28265 7.93529 8.09496 7.93529H6.90669C6.71885 7.93529 6.56641 8.08751 6.56641 8.27542V9.46337C6.56641 9.65152 6.71885 9.8038 6.90669 9.8038H8.09496C8.28265 9.8038 8.43509 9.65152 8.43509 9.46337V8.27542Z" fill="#ED1B24"/>
<path d="M11.406 8.27542C11.406 8.08751 11.2535 7.93529 11.0657 7.93529H9.87758C9.68952 7.93529 9.53711 8.08751 9.53711 8.27542V9.46337C9.53711 9.65152 9.68952 9.8038 9.87758 9.8038H11.0657C11.2535 9.8038 11.406 9.65152 11.406 9.46337V8.27542Z" fill="#ED1B24"/>
<path d="M5.46846 11.245C5.46846 11.0568 5.31605 10.9046 5.128 10.9046H3.93989C3.75205 10.9046 3.59961 11.0568 3.59961 11.245V12.4327C3.59961 12.6207 3.75205 12.773 3.93989 12.773H5.128C5.31605 12.773 5.46846 12.6207 5.46846 12.4327V11.245Z" fill="#ED1B24"/>
<path d="M8.43509 11.245C8.43509 11.0568 8.28265 10.9046 8.09496 10.9046H6.90669C6.71885 10.9046 6.56641 11.0568 6.56641 11.245V12.4327C6.56641 12.6207 6.71885 12.773 6.90669 12.773H8.09496C8.28265 12.773 8.43509 12.6207 8.43509 12.4327V11.245Z" fill="#ED1B24"/>
<path d="M11.406 11.245C11.406 11.0568 11.2535 10.9046 11.0658 10.9046H9.87758C9.68952 10.9046 9.53711 11.0568 9.53711 11.245V12.4327C9.53711 12.6207 9.68952 12.773 9.87758 12.773H11.0658C11.2535 12.773 11.406 12.6207 11.406 12.4327V11.245Z" fill="#ED1B24"/>
<path d="M13.5299 1.6702V3.4847C13.5299 4.30483 12.8646 4.96573 12.0445 4.96573H11.1076C10.2875 4.96573 9.61334 4.30483 9.61334 3.4847V1.66368H5.39006V3.4847C5.39006 4.30483 4.71595 4.96573 3.896 4.96573H2.95882C2.13884 4.96573 1.47355 4.30483 1.47355 3.4847V1.6702C0.756873 1.6918 0.167969 2.28482 0.167969 3.01372V13.6476C0.167969 14.3902 0.769871 15.0001 1.51248 15.0001H13.4909C14.2324 15.0001 14.8354 14.3889 14.8354 13.6476V3.01372C14.8354 2.28482 14.2466 1.6918 13.5299 1.6702ZM13.0947 12.9854C13.0947 13.3063 12.8345 13.5666 12.5134 13.5666H2.46437C2.14333 13.5666 1.88312 13.3063 1.88312 12.9854V7.49261C1.88312 7.17156 2.1433 6.9112 2.46437 6.9112H12.5134C12.8344 6.9112 13.0946 7.17156 13.0946 7.49261L13.0947 12.9854Z" fill="#ED1B24"/>
<path d="M2.95668 3.99297H3.8835C4.16481 3.99297 4.39291 3.76521 4.39291 3.48389V0.509257C4.39291 0.227911 4.16481 0 3.8835 0H2.95668C2.67533 0 2.44727 0.227911 2.44727 0.509257V3.48389C2.44727 3.76521 2.67533 3.99297 2.95668 3.99297Z" fill="#ED1B24"/>
<path d="M11.0953 3.99297H12.0221C12.3033 3.99297 12.5314 3.76521 12.5314 3.48389V0.509257C12.5314 0.227911 12.3033 0 12.0221 0H11.0953C10.814 0 10.5859 0.227911 10.5859 0.509257V3.48389C10.5859 3.76521 10.814 3.99297 11.0953 3.99297Z" fill="#ED1B24"/>
</svg>
