<svg id="Capa_1" enable-background="new 0 0 512 512" viewBox="0 0 512 512" xmlns="http://www.w3.org/2000/svg"><g><path d="m344.061 333.379c-7.908-1.356-13.061-8.401-13.061-14.714v-19.261c18.546-18.946 30-44.861 30-73.404v-121c0-57.897-47.103-105-105-105s-105 47.103-105 105v121c0 28.543 11.454 54.458 30 73.404v19.261c0 6.635-5.04 13.339-13.062 14.714-78.686 13.49-136.938 83.039-136.938 163.621v15h450v-15c0-80.48-58.157-150.115-136.939-163.621zm-163.061-228.379c0-41.355 33.645-75 75-75s75 33.645 75 75v42.563c-7.608-2.421-14.874-6.387-22.802-10.724-14.433-7.892-30.791-16.839-52.198-16.839s-37.765 8.947-52.198 16.84c-7.928 4.336-15.194 8.303-22.802 10.724zm0 73.507c14.378-2.87 26.334-9.405 37.198-15.346 12.911-7.062 24.062-13.161 37.802-13.161s24.891 6.099 37.802 13.16c10.864 5.941 22.82 12.476 37.198 15.346 0 0-.031 48.684-.045 49.279-21.943-8.301-44.698-16.785-74.955-16.785s-53.012 8.484-74.955 16.786c-.014-.596-.045-1.187-.045-1.786zm53.787 214.313-20.632 20.632c-8.458-10.746-18.013-26.398-18.013-40.637 0-6.414.841-11.979 2.017-16.623zm-24.403-66.83c.283-1.693.477-3.414.561-5.161 13.661 6.517 28.938 10.171 45.055 10.171s31.394-3.654 45.055-10.17c.085 1.747.278 3.468.561 5.161l-45.616 45.615zm66.829 66.83 36.628-36.629c1.175 4.645 2.017 10.209 2.017 16.624 0 14.135-9.577 29.824-18.04 40.61zm-21.213-91.82c-30.193 0-56.259-17.944-68.139-43.719 23.545-8.888 42.141-16.281 68.139-16.281 25.869 0 44.383 7.314 68.139 16.281-11.88 25.775-37.946 43.719-68.139 43.719zm-194.155 181c6.431-56.899 48.907-105.228 104.657-117.757-.232 2.74-.361 5.598-.361 8.572 0 36.939 33.295 69.686 37.092 73.298l10.6 10.085 42.167-42.165 42.166 42.166 10.6-10.085c3.796-3.612 37.092-36.359 37.092-73.298 0-2.975-.129-5.833-.361-8.573 55.75 12.53 98.227 60.858 104.657 117.757z" fill="#00a052"/><path d="m241 60h30v30h-30z" transform="matrix(.707 -.707 .707 .707 21.951 202.992)" fill="#ed1b24"/></g></svg>