<svg viewBox="0 0 14 14" fill="none" xmlns="http://www.w3.org/2000/svg">
<g clip-path="url(#clip0)">
<path d="M12.9214 8.7947C12.7289 8.7947 12.5728 8.95079 12.5728 9.14337V12.2392C12.5721 12.8167 12.1042 13.2847 11.5268 13.2852H1.74336C1.16587 13.2847 0.698026 12.8167 0.697345 12.2392V3.15315C0.698026 2.5758 1.16587 2.10782 1.74336 2.10714H4.83919C5.03178 2.10714 5.18787 1.95105 5.18787 1.75846C5.18787 1.56601 5.03178 1.40979 4.83919 1.40979H1.74336C0.780972 1.41088 0.0010896 2.19076 0 3.15315V12.2393C0.0010896 13.2017 0.780972 13.9816 1.74336 13.9827H11.5268C12.4891 13.9816 13.269 13.2017 13.2701 12.2393V9.14337C13.2701 8.95079 13.114 8.7947 12.9214 8.7947Z" fill="#00A052"/>
<path d="M13.132 0.512674C12.5193 -0.100091 11.5258 -0.100091 10.9131 0.512674L4.69251 6.73321C4.64987 6.77584 4.61909 6.82869 4.60302 6.88671L3.785 9.83994C3.75136 9.96102 3.78555 10.0907 3.87435 10.1796C3.96329 10.2684 4.09295 10.3026 4.21403 10.2691L7.16727 9.45095C7.22529 9.43488 7.27814 9.40409 7.32077 9.36146L13.5412 3.14079C14.153 2.52762 14.153 1.53499 13.5412 0.921819L13.132 0.512674ZM5.45223 6.95985L10.5433 1.86868L12.1852 3.51058L7.09399 8.60174L5.45223 6.95985ZM5.12426 7.61797L6.43601 8.92985L4.62154 9.43256L5.12426 7.61797ZM13.0481 2.64775L12.6783 3.01753L11.0363 1.3755L11.4062 1.00572C11.7466 0.665354 12.2985 0.665354 12.6389 1.00572L13.0481 1.41486C13.388 1.75564 13.388 2.30711 13.0481 2.64775Z" fill="#00A052"/>
</g>
<defs>
<clipPath id="clip0">
<rect width="14" height="14" fill="white"/>
</clipPath>
</defs>
</svg>
