<svg width="12" height="13" viewBox="0 0 12 13" fill="none" xmlns="http://www.w3.org/2000/svg">
<path d="M0 6.5C0 5.41226 0.266664 4.40877 0.799998 3.48948C1.34035 2.57017 2.07017 1.84386 2.98948 1.31053C3.91579 0.770174 4.91928 0.5 6 0.5C7.08774 0.5 8.09124 0.770174 9.0105 1.31053C9.92982 1.84386 10.6561 2.57368 11.1895 3.5C11.7298 4.4193 12 5.41928 12 6.5C12 7.58072 11.7298 8.58422 11.1895 9.5105C10.6561 10.4298 9.92634 11.1597 9 11.7C8.08068 12.2334 7.08072 12.5 6 12.5C4.91928 12.5 3.91579 12.2334 2.98948 11.7C2.07017 11.1597 1.34035 10.4298 0.799998 9.5105C0.266664 8.58422 0 7.58072 0 6.5ZM5.20002 9.30002C5.20002 9.51752 5.27718 9.707 5.43156 9.8684C5.59296 10.0228 5.78244 10.1 6 10.1C6.21756 10.1 6.4035 10.0228 6.55788 9.8684C6.71928 9.707 6.79998 9.51752 6.79998 9.30002C6.79998 9.08246 6.71928 8.89652 6.55788 8.74208C6.4035 8.58068 6.21756 8.49998 6 8.49998C5.78244 8.49998 5.59296 8.58068 5.43156 8.74208C5.27718 8.89652 5.20002 9.08246 5.20002 9.30002ZM5.4 7.29998C5.4 7.46138 5.45964 7.60178 5.57892 7.72106C5.69826 7.84034 5.8386 7.89998 6 7.89998C6.16842 7.89998 6.30876 7.84034 6.42108 7.72106C6.54036 7.60178 6.6 7.46138 6.6 7.29998V3.5C6.6 3.33158 6.54036 3.19123 6.42108 3.07895C6.30876 2.95965 6.16842 2.9 6 2.9C5.8386 2.9 5.69826 2.95965 5.57892 3.07895C5.45964 3.19123 5.4 3.33158 5.4 3.5V7.29998Z" fill="white"/>
</svg>
