<svg width="20" height="20" viewBox="0 0 20 20" fill="none" xmlns="http://www.w3.org/2000/svg">
<path d="M0.394566 0.0754334C0.595913 -0.02547 0.833084 -0.02547 1.03443 0.0754334L19.6053 9.36084C19.958 9.53741 20.1009 9.96647 19.9243 10.3192C19.8238 10.52 19.6348 10.6619 19.4139 10.7022L12.0434 12.0429L10.7027 19.4133C10.6479 19.7155 10.406 19.9487 10.102 19.9926C10.0684 19.9975 10.0345 19.9998 10.0006 19.9998C9.72991 19.9999 9.4824 19.847 9.36136 19.6048L0.0759106 1.03395C-0.100786 0.681272 0.0418854 0.252129 0.394566 0.0754334ZM9.68132 17.0491L10.727 11.3007C10.7811 11.0105 11.0082 10.7834 11.2984 10.7293L17.0496 9.6808L2.31227 2.3118L9.68132 17.0491Z" fill="#00A052"/>
</svg>
