<svg viewBox="0 0 16 16" fill="none" xmlns="http://www.w3.org/2000/svg">
<path d="M1 1V0C0.609376 0 0.25451 0.227451 0.0913779 0.582381C-0.0717543 0.937311 -0.0132861 1.35474 0.241084 1.65119L1 1ZM15 1L15.7589 1.65119C16.0133 1.35474 16.0718 0.937311 15.9086 0.582381C15.7455 0.227451 15.3906 0 15 0V1ZM6.25 7.11852H7.25C7.25 6.87963 7.16448 6.64863 7.00892 6.46733L6.25 7.11852ZM9.75 7.11852L8.99108 6.46733C8.83552 6.64863 8.75 6.87963 8.75 7.11852H9.75ZM9.75 15L9.29441 15.8902C9.60442 16.0488 9.97464 16.0348 10.2717 15.8531C10.5688 15.6714 10.75 15.3482 10.75 15H9.75ZM6.25 13.2088H5.25C5.25 13.5841 5.46024 13.9279 5.79441 14.0989L6.25 13.2088ZM1 2H15V0H1V2ZM8.75 7.11852V15H10.75V7.11852H8.75ZM10.2056 14.1098L6.70559 12.3186L5.79441 14.0989L9.29441 15.8902L10.2056 14.1098ZM7.25 13.2088V7.11852H5.25V13.2088H7.25ZM10.5089 7.76971L15.7589 1.65119L14.2411 0.348812L8.99108 6.46733L10.5089 7.76971ZM7.00892 6.46733L1.75892 0.348812L0.241084 1.65119L5.49108 7.76971L7.00892 6.46733Z" fill="#02A052"/>
</svg>
