<svg width="40" height="40" viewBox="0 0 40 40" fill="none" xmlns="http://www.w3.org/2000/svg">
<g clip-path="url(#clip0)">
<path d="M4.99609 17.7316H34.9719V39.1405H4.99609V17.7316Z" fill="#02C767"/>
<path d="M36.6183 9.6918V17.7316H3.34961V9.6918H36.6183Z" fill="#00A052"/>
<path d="M14.4258 9.6918H25.5415V17.7317H14.4258V9.6918Z" fill="#E21F25"/>
<path d="M15.9629 32.8906V17.7316H24.0028V39.1406H15.9629" fill="#FF454B"/>
<path d="M36.6823 8.86806H31.972C32.9906 7.94247 33.687 6.67081 33.8604 5.22489C33.9571 4.41984 33.8756 3.66758 33.6248 3.0496C32.7187 0.81694 29.7906 -0.455029 26.9585 0.153184C26.9357 0.158067 26.9131 0.16417 26.8905 0.170884C25.2166 0.691208 23.4182 2.40934 21.545 5.27738C20.9072 6.25363 20.3732 7.19204 19.9832 7.91928C19.5932 7.19204 19.0591 6.25363 18.4216 5.27738C16.5484 2.40934 14.7497 0.691208 13.0761 0.170884C13.0536 0.16417 13.031 0.158067 13.0081 0.153184C11.5722 -0.155348 10.0757 0.00547957 8.79393 0.605453C8.40178 0.789169 8.23271 1.25609 8.41643 1.64824C8.60014 2.04069 9.06675 2.20976 9.45921 2.02604C10.4077 1.58171 11.5661 1.45598 12.6431 1.67936C14.9142 2.41636 17.4331 6.43643 18.7158 8.86806H12.0642C10.3265 8.86806 8.74052 7.86526 8.02397 6.31284C7.84239 5.91977 7.3767 5.74796 6.98332 5.92954C6.58995 6.11111 6.41845 6.57712 6.60002 6.97049C6.93724 7.70138 7.41637 8.34255 7.9962 8.86806H3.2843C2.85126 8.86806 2.5 9.21932 2.5 9.65236V17.7233C2.5 18.1567 2.85126 18.5076 3.2843 18.5076H4.15283V39.2156C4.15283 39.6489 4.50408 39.9999 4.93713 39.9999H35.0292C35.4626 39.9999 35.8135 39.6489 35.8135 39.2156V18.5076H36.6823C37.1154 18.5076 37.4666 18.1567 37.4666 17.7233V9.65236C37.4666 9.21932 37.1154 8.86806 36.6823 8.86806ZM27.3232 1.67936C29.3877 1.2509 31.5569 2.12553 32.1712 3.6392C32.3226 4.01212 32.3681 4.49582 32.3031 5.03812C32.0409 7.22165 30.1492 8.86806 27.9025 8.86806H21.2506C22.5317 6.43643 25.0494 2.41758 27.3232 1.67936ZM4.0686 16.939V10.4367H13.6197V16.939H4.0686ZM23.2345 38.4313H5.72143V18.5076H15.1635V32.9412C15.1635 33.3745 15.5145 33.7255 15.9478 33.7255C16.3809 33.7255 16.7321 33.3745 16.7321 32.9412V18.5076H23.2345V38.4313ZM24.7784 16.939H15.1883V10.4367H24.7784V16.939ZM34.2452 38.4313H24.8031V18.5076H34.2449V38.4313H34.2452ZM35.898 16.939H26.347V10.4367H35.898V16.939Z" fill="black"/>
<path d="M16.7329 36.0778C16.7329 36.5127 16.3804 36.8651 15.9456 36.8651C15.5107 36.8651 15.1582 36.5127 15.1582 36.0778C15.1582 35.6429 15.5107 35.2904 15.9456 35.2904C16.3804 35.2904 16.7329 35.6429 16.7329 36.0778Z" fill="black"/>
<path d="M7.86182 3.57486C7.86182 4.00974 7.50934 4.36221 7.07446 4.36221C6.63959 4.36221 6.28711 4.00974 6.28711 3.57486C6.28711 3.13998 6.63959 2.78751 7.07446 2.78751C7.50934 2.78751 7.86182 3.13998 7.86182 3.57486Z" fill="black"/>
</g>
<defs>
<clipPath id="clip0">
<rect width="40" height="40" fill="white"/>
</clipPath>
</defs>
</svg>
