<svg width="16" height="17" viewBox="0 0 16 17" fill="none" xmlns="http://www.w3.org/2000/svg">
<path d="M11.0001 2.5C13.0252 2.5 14.6668 4.16667 14.6668 6.5C14.6668 11.1667 9.6668 13.8333 8.00013 14.8333C6.33347 13.8333 1.33347 11.1667 1.33347 6.5C1.33347 4.16667 3.00013 2.5 5.00013 2.5C6.24011 2.5 7.33347 3.16667 8.00013 3.83333C8.6668 3.16667 9.76013 2.5 11.0001 2.5ZM8.62273 12.9025C9.21046 12.5323 9.74013 12.1637 10.2367 11.7686C12.2226 10.1887 13.3335 8.46233 13.3335 6.5C13.3335 4.92717 12.3088 3.83333 11.0001 3.83333C10.2829 3.83333 9.50633 4.21274 8.94293 4.77614L8.00013 5.71895L7.05733 4.77614C6.49392 4.21274 5.7174 3.83333 5.00013 3.83333C3.70617 3.83333 2.6668 4.93767 2.6668 6.5C2.6668 8.46233 3.77765 10.1887 5.76356 11.7686C6.26013 12.1637 6.7898 12.5323 7.37753 12.9025C7.57653 13.0279 7.7742 13.1486 8.00013 13.2835C8.22607 13.1486 8.42373 13.0279 8.62273 12.9025Z" fill="#00A052"/>
</svg>
