<svg width="16" height="17" viewBox="0 0 16 17" fill="none" xmlns="http://www.w3.org/2000/svg">
<path d="M2.66666 15.1667C2.66666 12.2212 5.05447 9.83342 7.99999 9.83342C10.9455 9.83342 13.3333 12.2212 13.3333 15.1667H12C12 12.9576 10.2091 11.1667 7.99999 11.1667C5.79085 11.1667 3.99999 12.9576 3.99999 15.1667H2.66666ZM7.99999 9.16675C5.78999 9.16675 3.99999 7.37675 3.99999 5.16675C3.99999 2.95675 5.78999 1.16675 7.99999 1.16675C10.21 1.16675 12 2.95675 12 5.16675C12 7.37675 10.21 9.16675 7.99999 9.16675ZM7.99999 7.83342C9.47332 7.83342 10.6667 6.64008 10.6667 5.16675C10.6667 3.69341 9.47332 2.50008 7.99999 2.50008C6.52666 2.50008 5.33332 3.69341 5.33332 5.16675C5.33332 6.64008 6.52666 7.83342 7.99999 7.83342Z" fill="#00A052"/>
</svg>
