<svg width="16" height="17" viewBox="0 0 16 17" fill="none" xmlns="http://www.w3.org/2000/svg">
<path d="M8.00013 1.83325C10.5775 1.83325 12.6668 3.92259 12.6668 6.49992H13.3828C13.7311 6.49992 14.0207 6.76813 14.0475 7.11545L14.6116 14.4488C14.6398 14.8159 14.3651 15.1364 13.998 15.1647L13.9469 15.1666H2.05339C1.68519 15.1666 1.38672 14.8681 1.38672 14.4999L1.38868 14.4488L1.95279 7.11545C1.9795 6.76813 2.26913 6.49992 2.61749 6.49992H3.33347C3.33347 3.92259 5.42281 1.83325 8.00013 1.83325ZM12.7648 7.83325H3.2348L2.7728 13.8333H13.2268L12.7648 7.83325ZM9.33347 9.16658V10.4999H6.6668V9.16658H9.33347ZM8.00013 3.16659C6.20763 3.16659 4.74559 4.58146 4.66988 6.35532L4.6668 6.49992H11.3335C11.3335 4.70741 9.9186 3.24537 8.14473 3.16967L8.00013 3.16659Z" fill="white"/>
</svg>
