<svg width="16" height="17" viewBox="0 0 16 17" fill="none" xmlns="http://www.w3.org/2000/svg">
<mask id="mask0_709_2313" style="mask-type:luminance" maskUnits="userSpaceOnUse" x="0" y="0" width="16" height="17">
<path d="M16 0.5H0V16.5H16V0.5Z" fill="white"/>
</mask>
<g mask="url(#mask0_709_2313)">
<path d="M14.406 6.8988C14.4046 8.29932 13.9838 9.56528 13.0812 10.8842C12.8862 11.169 12.4973 11.2419 12.2124 11.0471C11.9276 10.8522 11.8547 10.4631 12.0496 10.1782C12.8034 9.0768 13.1549 8.03466 13.156 6.89893C13.1528 4.06042 10.8398 1.75 7.99988 1.75C5.16003 1.75 2.84705 4.06042 2.84375 6.90014C2.84594 9.16128 4.23096 10.6781 5.83472 12.4343C6.57238 13.2422 7.33129 14.0734 7.99988 15.0293C8.66848 14.0733 9.42752 13.2421 10.1652 12.4343L10.2616 12.3287C10.4942 12.0738 10.8895 12.0557 11.1446 12.2883C11.3994 12.5211 11.4175 12.9164 11.1848 13.1714L11.0882 13.2772C10.2586 14.1857 9.40072 15.1251 8.71568 16.209C8.6012 16.3902 8.40176 16.5 8.18736 16.5H7.81237C7.59802 16.5 7.39868 16.3902 7.28405 16.209C6.599 15.1251 5.74121 14.1857 4.91162 13.2772C4.06555 12.3507 3.26648 11.4756 2.65125 10.4724C1.94092 9.31408 1.59497 8.1455 1.59375 6.90014C1.5957 5.18921 2.26293 3.58227 3.47253 2.3739C4.68213 1.16553 6.29004 0.5 7.99988 0.5C9.70968 0.5 11.3176 1.16553 12.5274 2.3739C13.7368 3.58215 14.4042 5.18909 14.406 6.8988ZM11.8749 6.90625C11.8749 9.06016 10.1226 10.8125 7.96862 10.8125C5.81469 10.8125 4.06237 9.06016 4.06237 6.90625C4.06237 4.75232 5.81469 3 7.96862 3C10.1226 3 11.8749 4.75232 11.8749 6.90625ZM10.6249 6.90625C10.6249 5.44165 9.43336 4.25 7.96862 4.25C6.50403 4.25 5.31237 5.44165 5.31237 6.90625C5.31237 8.37085 6.50403 9.56248 7.96862 9.56248C9.43336 9.56248 10.6249 8.37085 10.6249 6.90625Z" fill="#00A052"/>
</g>
</svg>
