<svg viewBox="0 0 100 100" fill="none" xmlns="http://www.w3.org/2000/svg">
<g clip-path="url(#clip0)">
<path d="M98.3337 13.3333V86.6667C98.3337 90.3479 95.3482 93.3333 91.667 93.3333H8.33366C4.65241 93.3333 1.66699 90.3479 1.66699 86.6667V13.3333C1.66699 9.65207 4.65241 6.66666 8.33366 6.66666H91.667C95.3482 6.66666 98.3337 9.65207 98.3337 13.3333Z" fill="#00A052" fill-opacity="0.1"/>
<path d="M98.3337 13.3333V15H16.667C13.0545 15 10.1128 17.8729 10.0045 21.4583C9.99803 21.6717 10.0003 86.9 10.0003 86.6915C10.0003 92.121 1.66699 92.3983 1.66699 86.6667V13.3333C1.66699 9.65145 4.65178 6.66666 8.33366 6.66666H91.667C95.3489 6.66666 98.3337 9.65145 98.3337 13.3333Z" fill="#00A052" fill-opacity="0.05"/>
<path d="M98.3337 13.3333V21.4583H1.66699V13.3333C1.66699 9.65207 4.65241 6.66666 8.33366 6.66666H91.667C95.3482 6.66666 98.3337 9.65207 98.3337 13.3333Z" fill="#00A052" fill-opacity="0.1"/>
<path d="M91.6918 15H16.667C13.0545 15 10.1128 17.8729 10.0045 21.4583H1.66699V13.3333C1.66699 9.65145 4.65178 6.66666 8.33366 6.66666H91.667C97.3968 6.66666 97.1232 15 91.6918 15Z" fill="#00A052" fill-opacity="0.1"/>
<path d="M66.0423 50V71.6667C66.0423 74.4281 63.8038 76.6667 61.0423 76.6667H38.959C36.1975 76.6667 33.959 74.4281 33.959 71.6667V50C33.959 48.1589 35.4513 46.6667 37.2923 46.6667H62.709C64.55 46.6667 66.0423 48.1589 66.0423 50Z" fill="#00A052" fill-opacity="0.1"/>
<path d="M66.0423 50V54.9781C66.0423 55.4575 65.6567 55.849 65.1775 55.8525C53.1165 55.9437 42.0609 62.0429 35.5763 72.134C35.1079 72.8629 33.9632 72.5573 33.959 71.691C33.959 71.6712 33.959 49.9802 33.959 50C33.959 48.1589 35.4513 46.6667 37.2923 46.6667H62.709C64.55 46.6667 66.0423 48.1589 66.0423 50Z" fill="#00A052" fill-opacity="0.1"/>
<path d="M98.3333 23.125H13.75C12.8296 23.125 12.0833 22.3788 12.0833 21.4583C12.0833 20.5379 12.8296 19.7917 13.75 19.7917H96.6667V13.3333C96.6667 10.5763 94.4235 8.33333 91.6667 8.33333H8.33333C5.57646 8.33333 3.33333 10.5763 3.33333 13.3333V86.6667C3.33333 89.4238 5.57646 91.6667 8.33333 91.6667H91.6667C94.4235 91.6667 96.6667 89.4238 96.6667 86.6667V33.125C96.6667 32.2046 97.4129 31.4583 98.3333 31.4583C99.2537 31.4583 100 32.2046 100 33.125V86.6667C100 91.2617 96.2617 95 91.6667 95H8.33333C3.73833 95 0 91.2617 0 86.6667V13.3333C0 8.73833 3.73833 5 8.33333 5H91.6667C96.2617 5 100 8.73833 100 13.3333V21.4583C100 22.3788 99.2537 23.125 98.3333 23.125ZM14.1667 15.8333H15C15.9204 15.8333 16.6667 15.0871 16.6667 14.1667C16.6667 13.2463 15.9204 12.5 15 12.5H14.1667C13.2462 12.5 12.5 13.2463 12.5 14.1667C12.5 15.0871 13.2462 15.8333 14.1667 15.8333ZM25.4167 15.8333C26.3371 15.8333 27.0833 15.0871 27.0833 14.1667C27.0833 13.2463 26.3371 12.5 25.4167 12.5H24.5833C23.6629 12.5 22.9167 13.2463 22.9167 14.1667C22.9167 15.0871 23.6629 15.8333 24.5833 15.8333H25.4167ZM35.8333 15.8333C36.7537 15.8333 37.5 15.0871 37.5 14.1667C37.5 13.2463 36.7537 12.5 35.8333 12.5H35C34.0796 12.5 33.3333 13.2463 33.3333 14.1667C33.3333 15.0871 34.0796 15.8333 35 15.8333H35.8333ZM56.6667 53.125C57.5871 53.125 58.3333 52.3788 58.3333 51.4583V42.2917C58.3333 37.6967 54.595 33.9583 50 33.9583C45.405 33.9583 41.6667 37.6967 41.6667 42.2917V45H33.9583C33.0379 45 32.2917 45.7463 32.2917 46.6667V71.6667C32.2917 75.3427 35.2823 78.3333 38.9583 78.3333H61.0417C64.7177 78.3333 67.7083 75.3427 67.7083 71.6667V46.6667C67.7083 45.7463 66.9621 45 66.0417 45C65.1212 45 64.375 45.7463 64.375 46.6667V71.6667C64.375 73.5048 62.8796 75 61.0417 75H38.9583C37.1204 75 35.625 73.5048 35.625 71.6667V48.3333H41.6667V51.4583C41.6667 52.3788 42.4129 53.125 43.3333 53.125C44.2537 53.125 45 52.3788 45 51.4583V48.3333H50C50.9204 48.3333 51.6667 47.5871 51.6667 46.6667C51.6667 45.7463 50.9204 45 50 45H45V42.2917C45 39.5346 47.2431 37.2917 50 37.2917C52.7569 37.2917 55 39.5346 55 42.2917V51.4583C55 52.3788 55.7463 53.125 56.6667 53.125Z" fill="#00A052"/>
<path d="M56.667 53.125C57.5874 53.125 58.3337 52.3788 58.3337 51.4583V42.2917C58.3337 37.6967 54.5953 33.9583 50.0003 33.9583C45.4053 33.9583 41.667 37.6967 41.667 42.2917V45H33.9587C33.0382 45 32.292 45.7463 32.292 46.6667V71.6667C32.292 75.3427 35.2826 78.3334 38.9587 78.3334H61.042C64.718 78.3334 67.7087 75.3427 67.7087 71.6667V46.6667C67.7087 45.7463 66.9624 45 66.042 45C65.1216 45 64.3753 45.7463 64.3753 46.6667V71.6667C64.3753 73.5048 62.8799 75 61.042 75H38.9587C37.1207 75 35.6253 73.5048 35.6253 71.6667V48.3333H41.667V51.4583C41.667 52.3788 42.4132 53.125 43.3337 53.125C44.2541 53.125 45.0003 52.3788 45.0003 51.4583V48.3333H50.0003C50.9207 48.3333 51.667 47.5871 51.667 46.6667C51.667 45.7463 50.9207 45 50.0003 45H45.0003V42.2917C45.0003 39.5346 47.2435 37.2917 50.0003 37.2917C52.7572 37.2917 55.0003 39.5346 55.0003 42.2917V51.4583C55.0003 52.3788 55.7466 53.125 56.667 53.125Z" fill="#E21F25"/>
</g>
<defs>
<clipPath id="clip0">
<rect width="100" height="100" fill="white"/>
</clipPath>
</defs>
</svg>
