<svg width="136" height="132" viewBox="0 0 136 132" fill="none" xmlns="http://www.w3.org/2000/svg">
<path opacity="0.1" d="M70.8469 7.09574C68.7064 5.88701 55.1767 -1.44782 40.3259 1.48965C17.9697 5.87786 6.75889 28.3748 4.74961 33.076C-6.02973 58.0973 5.78235 83.3801 7.95755 88.1809C18.4847 111.49 39.6052 120.489 45.7312 123.432C51.8572 126.376 71.558 135.561 95.3893 129.6C104.006 127.446 122.784 122.758 131.382 105.2C132.002 103.939 140.322 86.374 132.456 71.4466C126.163 59.5047 116.659 62.8589 103.405 46.9456C96.7017 38.8317 98.0295 36.6657 88.401 24.5908C81.3723 15.6759 77.6062 10.9658 70.8469 7.09574Z" fill="white"/>
</svg>
