<svg width="63" height="61" viewBox="0 0 63 61" fill="none" xmlns="http://www.w3.org/2000/svg">
<path opacity="0.1" d="M30.0143 2.97421C31.0032 2.41579 37.2538 -0.972838 44.1147 0.384246C54.4431 2.41156 59.6224 12.805 60.5506 14.9769C65.5306 26.5365 60.0735 38.217 59.0686 40.4349C54.2052 51.2037 44.4476 55.3607 41.6175 56.7207C38.7874 58.0807 29.6857 62.3239 18.6759 59.5699C14.695 58.5751 6.01992 56.4094 2.04744 48.2975C1.76114 47.715 -2.08247 39.6001 1.55158 32.7038C4.45883 27.1867 8.84935 28.7363 14.9725 21.3845C18.0696 17.636 17.4561 16.6353 21.9044 11.0568C25.1516 6.93815 26.8915 4.76216 30.0143 2.97421Z" fill="white"/>
</svg>
