<svg width="19" height="19" viewBox="0 0 19 19" fill="none" xmlns="http://www.w3.org/2000/svg">
<path d="M15.7927 3.13459C12.2775 -0.379592 6.57895 -0.378748 3.06477 3.13652C-0.449416 6.6518 -0.448573 12.3503 3.0667 15.8645C6.58197 19.3786 12.2804 19.3778 15.7946 15.8625C17.4823 14.1743 18.4302 11.8847 18.4297 9.49759C18.4292 7.11083 17.4807 4.82202 15.7927 3.13459ZM14.0599 13.0364C14.0595 13.0368 14.0591 13.0372 14.0587 13.0376V13.0346L13.6027 13.4876C13.0129 14.0848 12.154 14.3305 11.3377 14.1356C10.5152 13.9155 9.73331 13.565 9.02168 13.0976C8.36053 12.6751 7.74783 12.1811 7.19468 11.6246C6.68572 11.1194 6.22848 10.5646 5.82967 9.96861C5.39345 9.32729 5.04818 8.62867 4.80367 7.8926C4.52336 7.0279 4.75564 6.07907 5.40368 5.44162L5.93767 4.90763C6.08613 4.75849 6.32737 4.75797 6.47647 4.90643C6.47686 4.90682 6.47728 4.9072 6.47767 4.90763L8.16365 6.59362C8.31279 6.74208 8.31331 6.98332 8.16485 7.13242C8.16446 7.13281 8.16408 7.13319 8.16365 7.13362L7.17365 8.12362C6.88959 8.40458 6.85387 8.85107 7.08967 9.17363C7.44773 9.66504 7.84398 10.1274 8.27468 10.5566C8.75488 11.0389 9.27691 11.4776 9.83467 11.8676C10.1569 12.0924 10.5939 12.0545 10.8727 11.7776L11.8296 10.8056C11.9781 10.6565 12.2193 10.656 12.3684 10.8045C12.3688 10.8048 12.3692 10.8052 12.3696 10.8056L14.0587 12.4976C14.2078 12.6461 14.2083 12.8873 14.0599 13.0364Z" fill="#00A052"/>
</svg>
