<svg width="21" height="35" viewBox="0 0 21 35" fill="none" xmlns="http://www.w3.org/2000/svg">
<path d="M17.8628 0H3.13685C1.72752 0 0.589844 1.14277 0.589844 2.54956V32.453C0.589844 33.8585 1.72752 35 3.13685 35H17.8628C19.2696 35 20.4098 33.8585 20.4098 32.453V2.54956C20.4098 1.14277 19.2696 0 17.8628 0ZM6.86617 1.54836H14.1361C14.3197 1.54836 14.4689 1.82257 14.4689 2.16183C14.4689 2.50109 14.3197 2.77658 14.1361 2.77658H6.86617C6.68124 2.77658 6.53456 2.50109 6.53456 2.16183C6.53456 1.82257 6.68124 1.54836 6.86617 1.54836ZM10.5011 32.4836C9.60449 32.4836 8.87495 31.7541 8.87495 30.8562C8.87495 29.9583 9.60449 29.2313 10.5011 29.2313C11.3952 29.2313 12.1247 29.9583 12.1247 30.8562C12.1247 31.7541 11.3952 32.4836 10.5011 32.4836ZM18.5018 26.9113H2.49914V4.30198H18.5018V26.9113Z" fill="#CCCCCC"/>
</svg>
