<svg viewBox="0 0 20 20" fill="none" xmlns="http://www.w3.org/2000/svg">
<g clip-path="url(#clip0)">
<path d="M18.0075 7.9985C18.0058 9.74915 17.4797 11.3316 16.3515 12.9803C16.1078 13.3363 15.6216 13.4274 15.2655 13.1839C14.9095 12.9402 14.8184 12.4539 15.062 12.0978C16.0042 10.721 16.4436 9.41833 16.445 7.99866C16.441 4.45053 13.5497 1.5625 9.99985 1.5625C6.45004 1.5625 3.55881 4.45053 3.55469 8.00018C3.55743 10.8266 5.2887 12.7226 7.2934 14.9179C8.21548 15.9277 9.16412 16.9667 9.99985 18.1616C10.8356 16.9666 11.7844 15.9276 12.7065 14.9179L12.827 14.7859C13.1178 14.4672 13.6119 14.4446 13.9307 14.7354C14.2493 15.0264 14.2719 15.5205 13.981 15.8392L13.8602 15.9715C12.8232 17.1071 11.7509 18.2814 10.8946 19.6362C10.7515 19.8627 10.5022 20 10.2342 20H9.76547C9.49753 20 9.24835 19.8627 9.10507 19.6362C8.24875 18.2814 7.17651 17.1071 6.13953 15.9715C5.08194 14.8134 4.0831 13.7195 3.31406 12.4655C2.42615 11.0176 1.99371 9.55688 1.99219 8.00018C1.99463 5.86151 2.82867 3.85284 4.34067 2.34238C5.85266 0.831909 7.86255 0 9.99985 0C12.1371 0 14.147 0.831909 15.6592 2.34238C17.171 3.85269 18.0052 5.86136 18.0075 7.9985ZM14.8436 8.00781C14.8436 10.7002 12.6532 12.8906 9.96078 12.8906C7.26837 12.8906 5.07797 10.7002 5.07797 8.00781C5.07797 5.3154 7.26837 3.125 9.96078 3.125C12.6532 3.125 14.8436 5.3154 14.8436 8.00781ZM13.2811 8.00781C13.2811 6.17706 11.7917 4.6875 9.96078 4.6875C8.13004 4.6875 6.64047 6.17706 6.64047 8.00781C6.64047 9.83856 8.13004 11.3281 9.96078 11.3281C11.7917 11.3281 13.2811 9.83856 13.2811 8.00781Z" fill="#00A052"/>
</g>
<defs>
<clipPath id="clip0">
<rect width="20" height="20" fill="white"/>
</clipPath>
</defs>
</svg>
