<svg width="18" height="18" viewBox="0 0 18 18" fill="none" xmlns="http://www.w3.org/2000/svg">
<path d="M9.00088 17.0799C7.90988 17.0799 6.85188 16.8659 5.85588 16.4449C4.89388 16.0379 4.02988 15.4549 3.28788 14.7139C2.54588 13.9729 1.96388 13.1079 1.55688 12.1459C1.13488 11.1489 0.921875 10.0909 0.921875 9.00092C0.921875 7.90992 1.13588 6.85192 1.55688 5.85592C1.96388 4.89392 2.54688 4.02992 3.28788 3.28792C4.02888 2.54592 4.89388 1.96392 5.85588 1.55692C6.85188 1.13392 7.90988 0.919922 9.00088 0.919922C10.0919 0.919922 11.1499 1.13392 12.1459 1.55492C13.1079 1.96192 13.9719 2.54492 14.7139 3.28592C15.4559 4.02692 16.0379 4.89192 16.4449 5.85392C16.8669 6.85092 17.0799 7.90892 17.0799 8.99892C17.0799 10.0899 16.8659 11.1479 16.4449 12.1439C16.0379 13.1059 15.4549 13.9699 14.7139 14.7119C13.9729 15.4539 13.1079 16.0359 12.1459 16.4429C11.1499 16.8659 10.0919 17.0799 9.00088 17.0799ZM9.00088 2.19992C5.25088 2.19992 2.20088 5.24992 2.20088 8.99992C2.20088 12.7499 5.25088 15.7999 9.00088 15.7999C12.7509 15.7999 15.8009 12.7499 15.8009 8.99992C15.8009 5.24992 12.7509 2.19992 9.00088 2.19992Z" fill="white"/>
<path d="M7.33141 12.6065C7.22141 12.6065 7.11041 12.5775 7.01141 12.5205C6.81341 12.4065 6.69141 12.1945 6.69141 11.9665V6.26352C6.69141 6.03452 6.81341 5.82352 7.01141 5.70952C7.20941 5.59552 7.45341 5.59552 7.65141 5.70952L12.5904 8.56052C12.7884 8.67452 12.9104 8.88652 12.9104 9.11452C12.9104 9.34252 12.7884 9.55452 12.5904 9.66852L7.65141 12.5205C7.55241 12.5785 7.44141 12.6065 7.33141 12.6065ZM7.97141 7.37152V10.8585L10.9904 9.11552L7.97141 7.37152Z" fill="white"/>
</svg>
