<svg viewBox="0 0 10 11" fill="none" xmlns="http://www.w3.org/2000/svg">
<g clip-path="url(#clip0)">
<path d="M9.10714 4.31915H6.07143C5.97281 4.31915 5.89286 4.23919 5.89286 4.14058V1.10486C5.89286 0.611786 5.49308 0.212006 5 0.212006C4.50692 0.212006 4.10714 0.611786 4.10714 1.10486V4.14058C4.10714 4.23919 4.02719 4.31915 3.92857 4.31915H0.892857C0.39978 4.31915 0 4.71893 0 5.21201C0 5.70508 0.39978 6.10486 0.892857 6.10486H3.92857C4.02719 6.10486 4.10714 6.18482 4.10714 6.28343V9.31915C4.10714 9.81223 4.50692 10.212 5 10.212C5.49308 10.212 5.89286 9.81223 5.89286 9.31915V6.28343C5.89286 6.18482 5.97281 6.10486 6.07143 6.10486H9.10714C9.60022 6.10486 10 5.70508 10 5.21201C10 4.71893 9.60022 4.31915 9.10714 4.31915Z" fill="#00A052"/>
</g>
<defs>
<clipPath id="clip0">
<rect y="0.212006" width="10" height="10" fill="white"/>
</clipPath>
</defs>
</svg>
