<svg width="18" height="19" viewBox="0 0 18 19" fill="none" xmlns="http://www.w3.org/2000/svg">
<circle cx="9" cy="9.5" r="9" transform="rotate(90 9 9.5)" fill="#F3F6F1"/>
<path d="M8.05597 11.311V11.2002C8.05882 10.686 8.10711 10.2769 8.20086 9.97297C8.29745 9.66899 8.43382 9.42467 8.60995 9.24001C8.78609 9.05251 9.00058 8.88064 9.25342 8.72439C9.42671 8.61643 9.58154 8.49854 9.71791 8.37069C9.85711 8.24001 9.96649 8.09513 10.046 7.93604C10.1256 7.7741 10.1653 7.59371 10.1653 7.39484C10.1653 7.17041 10.1128 6.97581 10.0077 6.81104C9.90257 6.64626 9.76052 6.51842 9.58154 6.42751C9.40541 6.3366 9.20796 6.29115 8.98921 6.29115C8.78751 6.29115 8.59575 6.33518 8.41393 6.42325C8.23495 6.50848 8.0858 6.63916 7.96649 6.8153C7.85001 6.98859 7.78467 7.20876 7.77046 7.47581H6.25342C6.26762 6.93604 6.3983 6.48433 6.64546 6.12069C6.89546 5.75706 7.22501 5.48433 7.6341 5.30251C8.04603 5.12069 8.50058 5.02979 8.99774 5.02979C9.54035 5.02979 10.0176 5.12496 10.4296 5.3153C10.8443 5.50564 11.1668 5.77694 11.3969 6.12922C11.6298 6.47865 11.7463 6.89342 11.7463 7.37354C11.7463 7.6974 11.6938 7.98717 11.5886 8.24285C11.4864 8.49854 11.3401 8.72581 11.1497 8.92467C10.9594 9.12354 10.7335 9.30109 10.4722 9.45734C10.2421 9.59939 10.0531 9.74712 9.90541 9.90052C9.76052 10.0539 9.65257 10.2343 9.58154 10.4417C9.51336 10.6463 9.47785 10.8991 9.47501 11.2002V11.311H8.05597ZM8.79745 13.9701C8.54177 13.9701 8.3216 13.8792 8.13694 13.6974C7.95228 13.5156 7.85995 13.294 7.85995 13.0326C7.85995 12.7769 7.95228 12.5582 8.13694 12.3764C8.3216 12.1946 8.54177 12.1036 8.79745 12.1036C9.05029 12.1036 9.26904 12.1946 9.4537 12.3764C9.6412 12.5582 9.73495 12.7769 9.73495 13.0326C9.73495 13.2059 9.69092 13.3636 9.60285 13.5056C9.51762 13.6477 9.40399 13.7613 9.26194 13.8465C9.12274 13.9289 8.96791 13.9701 8.79745 13.9701Z" fill="#02A052"/>
</svg>
