<svg viewBox="0 0 20 18" fill="none" xmlns="http://www.w3.org/2000/svg">
<path d="M0.200851 7.83737L9.03358 0.558055C9.19753 0.422797 9.42706 0.394106 9.61969 0.484278C9.81233 0.574449 9.9353 0.771188 9.9353 0.984321V4.82072C14.2225 4.97647 17.1695 6.48889 18.7024 9.3211C20.0222 11.7639 20.0099 14.6576 19.9976 16.5717C19.9976 16.7275 19.9976 16.875 19.9976 17.0144C19.9976 17.2644 19.8296 17.4857 19.5837 17.5513C19.5386 17.5636 19.4894 17.5677 19.4443 17.5677C19.2476 17.5677 19.0631 17.4652 18.9648 17.289C15.9727 12.014 13.5094 11.7598 9.93939 11.7475V15.5716C9.93939 15.7848 9.81643 15.9815 9.61969 16.0717C9.42296 16.1619 9.19753 16.1332 9.02948 15.9979L0.200851 8.694C0.0737915 8.58743 1.52588e-05 8.43168 1.52588e-05 8.26774C1.52588e-05 8.10379 0.0737915 7.94394 0.200851 7.83737ZM8.82864 14.3953V11.1942C8.82864 11.0467 8.88603 10.9073 8.99259 10.8048C9.09506 10.7024 9.23851 10.6409 9.38197 10.6409C11.6117 10.6409 13.3208 10.7024 14.9808 11.477C16.4154 12.1451 17.6573 13.2805 18.8828 15.0634C18.8336 13.4362 18.6205 11.4934 17.731 9.84984C16.3211 7.24306 13.5913 5.95196 9.38197 5.91507C9.07866 5.91097 8.83274 5.66505 8.83274 5.36175V2.15655L1.42637 8.26774L8.82864 14.3953Z" fill="#C4C4C4"/>
</svg>
