<svg width="16" height="17" viewBox="0 0 16 17" fill="none" xmlns="http://www.w3.org/2000/svg">
<path d="M12.0207 11.5778L14.8758 14.4329L13.933 15.3757L11.0779 12.5206C10.0513 13.3419 8.74937 13.8333 7.33337 13.8333C4.02137 13.8333 1.33337 11.1453 1.33337 7.83325C1.33337 4.52125 4.02137 1.83325 7.33337 1.83325C10.6454 1.83325 13.3334 4.52125 13.3334 7.83325C13.3334 9.24925 12.842 10.5512 12.0207 11.5778ZM10.6832 11.0831C11.4984 10.243 12 9.09698 12 7.83325C12 5.25492 9.91171 3.16659 7.33337 3.16659C4.75504 3.16659 2.66671 5.25492 2.66671 7.83325C2.66671 10.4116 4.75504 12.4999 7.33337 12.4999C8.59711 12.4999 9.74311 11.9983 10.5832 11.1831L10.6832 11.0831Z" fill="#00A052"/>
</svg>
