<svg viewBox="0 0 20 20" fill="none" xmlns="http://www.w3.org/2000/svg">
<path d="M8.20086 0C12.7228 0 16.4017 3.67891 16.4017 8.20086C16.4017 10.1812 15.6961 11.9998 14.5231 13.4186L20 18.8955L18.8955 20L13.4186 14.5231C11.9998 15.6961 10.1812 16.4017 8.20086 16.4017C3.67891 16.4017 0 12.7228 0 8.20086C0 3.67891 3.67887 0 8.20086 0ZM8.20086 14.8396C11.8615 14.8396 14.8396 11.8615 14.8396 8.20086C14.8396 4.54023 11.8615 1.56207 8.20086 1.56207C4.54023 1.56207 1.56207 4.54023 1.56207 8.20086C1.56207 11.8615 4.54023 14.8396 8.20086 14.8396Z" fill="#00A052"/>
</svg>
