<svg width="15" height="15" viewBox="0 0 15 15" fill="none" xmlns="http://www.w3.org/2000/svg">
<path d="M6.15064 0C9.54211 0 12.3013 2.75918 12.3013 6.15064C12.3013 7.63591 11.7721 8.99985 10.8923 10.0639L15 14.1716L14.1716 15L10.0639 10.8923C8.99985 11.7721 7.63591 12.3013 6.15064 12.3013C2.75918 12.3013 0 9.54211 0 6.15064C0 2.75918 2.75915 0 6.15064 0ZM6.15064 11.1297C8.89611 11.1297 11.1297 8.89611 11.1297 6.15064C11.1297 3.40518 8.89611 1.17155 6.15064 1.17155C3.40518 1.17155 1.17155 3.40518 1.17155 6.15064C1.17155 8.89611 3.40518 11.1297 6.15064 11.1297Z" fill="#00A052"/>
</svg>
