<svg width="16" height="15" viewBox="0 0 16 15" fill="none" xmlns="http://www.w3.org/2000/svg">
<path opacity="0.3" d="M7.63678 0.787466C7.77974 0.477517 8.22026 0.477517 8.36322 0.787466L10.1633 4.69006C10.2216 4.81638 10.3413 4.90336 10.4794 4.91974L14.7473 5.42576C15.0862 5.46595 15.2224 5.8849 14.9718 6.11665L11.8164 9.03461C11.7143 9.12906 11.6686 9.26979 11.6957 9.40624L12.5333 13.6216C12.5998 13.9564 12.2434 14.2153 11.9456 14.0486L8.19538 11.9494C8.07399 11.8814 7.92601 11.8814 7.80462 11.9494L4.05443 14.0486C3.75659 14.2153 3.4002 13.9564 3.46673 13.6216L4.30431 9.40623C4.33142 9.26979 4.28569 9.12906 4.18356 9.03461L1.02823 6.11665C0.77763 5.8849 0.913757 5.46595 1.25271 5.42576L5.52056 4.91974C5.6587 4.90336 5.77842 4.81638 5.83669 4.69006L7.63678 0.787466Z" stroke="black"/>
</svg>
