<svg viewBox="0 0 30 30" fill="none" xmlns="http://www.w3.org/2000/svg">
<g clip-path="url(#clip0)">
<path d="M28.4956 16.9371V27.4972C28.4956 28.8753 27.3743 29.9966 25.9962 29.9966H4.00124C2.62306 29.9966 1.50182 28.8753 1.50182 27.4972V16.9371C1.50182 16.661 1.72564 16.4372 2.0017 16.4372C2.27776 16.4372 2.50159 16.661 2.50159 16.9371V27.4972C2.50159 28.3241 3.17431 28.9968 4.00124 28.9968H9.43748V20.5613C9.43748 19.1831 10.5587 18.0618 11.9369 18.0618H18.0605C19.4387 18.0618 20.5599 19.1831 20.5599 20.5613V26.9973C20.5599 27.2733 20.3361 27.4972 20.06 27.4972C19.784 27.4972 19.5601 27.2733 19.5601 26.9973V20.5613C19.5601 19.7344 18.8874 19.0616 18.0605 19.0616H11.9369C11.11 19.0616 10.4373 19.7344 10.4373 20.5613V28.9968H14.4988V21.1236C14.4988 20.8476 14.7226 20.6237 14.9987 20.6237C15.2748 20.6237 15.4986 20.8476 15.4986 21.1236V28.9968H25.9962C26.823 28.9968 27.4958 28.3241 27.4958 27.4972V16.9371C27.4958 16.661 27.7196 16.4372 27.9957 16.4372C28.2717 16.4372 28.4956 16.661 28.4956 16.9371ZM3.25141 8.00166C3.25141 8.27772 3.47524 8.50154 3.7513 8.50154C30.9493 8.50154 29.6008 8.55016 29.7995 8.39776C29.9033 8.31784 29.9712 8.20255 29.9899 8.07083C30.0177 7.86994 30.1971 8.36395 26.7047 0.304624C26.6254 0.121791 26.4453 0.00350571 26.246 0.00350571H3.75124C3.55203 0.00350571 3.37176 0.121853 3.29259 0.304624L0.0433434 7.80289C-0.0140808 7.93549 0.00210293 7.72504 0.00210293 11.1029C0.00572709 13.3765 1.85574 15.2262 4.12615 15.2262C5.68698 15.2262 7.0491 14.352 7.74925 13.0669C9.31301 15.9406 13.432 15.9438 14.9986 13.0689C16.564 15.9415 20.6812 15.9421 22.247 13.0689C22.9466 14.3528 24.3089 15.2262 25.8711 15.2262C28.1452 15.2262 29.9952 13.3762 29.9952 11.1021C29.9952 10.8261 29.7713 10.6022 29.4953 10.6022C29.2192 10.6022 28.9954 10.8261 28.9954 11.1021C28.9954 12.8249 27.5938 14.2264 25.8711 14.2264C24.1484 14.2264 22.7468 12.8249 22.7468 11.1021C22.7468 10.8261 22.523 10.6022 22.247 10.6022C21.9709 10.6022 21.7471 10.8261 21.7471 11.1021C21.7471 12.8249 20.3455 14.2264 18.6228 14.2264C16.9001 14.2264 15.4985 12.8249 15.4985 11.1021C15.4985 10.8261 15.2747 10.6022 14.9986 10.6022C14.7226 10.6022 14.4987 10.8261 14.4987 11.1021C14.4987 12.8249 13.0972 14.2264 11.3745 14.2264C9.69005 14.2264 8.2502 12.8727 8.2502 11.0771C8.2502 10.8011 8.02637 10.5773 7.75031 10.5773C7.47425 10.5773 7.25043 10.8011 7.25043 11.0771C7.25043 12.8575 5.81957 14.2264 4.12615 14.2264C2.40617 14.2264 1.00456 12.8245 1.00187 11.1021V8.10526L4.07947 1.00328H25.9179L28.7339 7.50178H3.7513C3.47517 7.50178 3.25141 7.72554 3.25141 8.00166Z" fill="#E21F25"/>
<path d="M28.4957 16.9371V27.4972C28.4957 28.8753 27.3745 29.9966 25.9963 29.9966H4.00137C2.62319 29.9966 1.50195 28.8753 1.50195 27.4972V16.9371C1.50195 16.661 1.72578 16.4372 2.00184 16.4372C2.2779 16.4372 2.50172 16.661 2.50172 16.9371V27.4972C2.50172 28.3241 3.17444 28.9968 4.00137 28.9968H9.43762V20.5613C9.43762 19.1831 10.5589 18.0618 11.937 18.0618H18.0606C19.4388 18.0618 20.56 19.1831 20.56 20.5613V26.9973C20.56 27.2733 20.3362 27.4972 20.0602 27.4972C19.7841 27.4972 19.5603 27.2733 19.5603 26.9973V20.5613C19.5603 19.7344 18.8875 19.0616 18.0606 19.0616H11.937C11.1102 19.0616 10.4374 19.7344 10.4374 20.5613V28.9968H14.4989V21.1236C14.4989 20.8476 14.7228 20.6237 14.9988 20.6237C15.2749 20.6237 15.4987 20.8476 15.4987 21.1236V28.9968H25.9963C26.8232 28.9968 27.4959 28.3241 27.4959 27.4972V16.9371C27.4959 16.661 27.7198 16.4372 27.9958 16.4372C28.2719 16.4372 28.4957 16.661 28.4957 16.9371Z" fill="#00A052"/>
</g>
<defs>
<clipPath id="clip0">
<rect width="30" height="30" fill="white"/>
</clipPath>
</defs>
</svg>
