<svg viewBox="0 0 20 20" fill="none" xmlns="http://www.w3.org/2000/svg">
<path d="M4.89695 11.8907C6.28707 11.8907 7.41797 13.0216 7.41797 14.4118C7.41797 15.8019 6.28707 16.9328 4.89695 16.9328C3.5066 16.9328 2.37594 15.8019 2.37594 14.4118C2.37594 13.0216 3.50684 11.8907 4.89695 11.8907ZM4.89695 15.6723C5.59211 15.6723 6.15746 15.1069 6.15746 14.4118C6.15746 13.7166 5.59211 13.1513 4.89695 13.1513C4.2018 13.1513 3.63645 13.7166 3.63645 14.4118C3.63645 15.107 4.2018 15.6723 4.89695 15.6723Z" fill="#FFFFFF"/>
<path d="M13.5102 11.8907C14.9004 11.8907 16.0312 13.0216 16.0312 14.4118C16.0312 15.8019 14.9004 16.9328 13.5102 16.9328C12.1201 16.9328 10.9892 15.8019 10.9892 14.4118C10.9892 13.0216 12.1201 11.8907 13.5102 11.8907ZM13.5102 15.6723C14.2054 15.6723 14.7707 15.1069 14.7707 14.4118C14.7707 13.7166 14.2054 13.1513 13.5102 13.1513C12.8153 13.1513 12.2497 13.7166 12.2497 14.4118C12.2497 15.107 12.8151 15.6723 13.5102 15.6723Z" fill="#FFFFFF"/>
<path d="M3.19945 4.67483C3.3066 4.46202 3.52445 4.32776 3.7627 4.32776H7.08203V5.58827H4.15137L2.4352 9.00171L1.30871 8.4353L3.19945 4.67483Z" fill="#FFFFFF"/>
<path d="M6.78773 13.8026H11.5566V15.0631H6.78773V13.8026Z" fill="#FFFFFF"/>
<path d="M15.3998 13.8026H17.5846C17.9327 13.8026 18.2148 14.0847 18.2148 14.4328C18.2148 14.7809 17.9327 15.063 17.5846 15.063H15.3997C15.0516 15.063 14.7695 14.7809 14.7695 14.4328C14.7695 14.0847 15.0516 13.8026 15.3998 13.8026Z" fill="#FFFFFF"/>
<path d="M0.132929 9.9496L1.37262 8.35296C1.49172 8.19917 1.67555 8.10925 1.87031 8.10925H6.45016V3.69749C6.45016 3.34937 6.7323 3.06726 7.08039 3.06726H17.5846C17.9327 3.06726 18.2148 3.34941 18.2148 3.69749C18.2148 4.04558 17.9327 4.32773 17.5846 4.32773H7.71066V8.73949C7.71066 9.08761 7.42852 9.36972 7.08043 9.36972H2.17895L1.26109 10.5521V13.8025H3.0048C3.35293 13.8025 3.63504 14.0846 3.63504 14.4327C3.63504 14.7809 3.35289 15.063 3.0048 15.063H0.630859C0.282734 15.063 0.00062561 14.7808 0.000585556 14.4327V10.3362C0.000585556 10.1962 0.047226 10.0601 0.132929 9.9496Z" fill="#FFFFFF"/>
<path d="M15.4393 10.6093H18.3385C18.6866 10.6093 18.9688 10.8914 18.9688 11.2395C18.9688 11.5876 18.6866 11.8697 18.3385 11.8697H15.4394C15.0912 11.8697 14.8091 11.5876 14.8091 11.2395C14.8091 10.8914 15.0913 10.6093 15.4393 10.6093Z" fill="#FFFFFF"/>
<path d="M13.9916 8.13019H19.3698C19.7179 8.13019 20 8.41234 20 8.76046C20 9.10859 19.7179 9.3907 19.3698 9.3907H13.9916C13.6435 9.3907 13.3614 9.10855 13.3614 8.76046C13.3614 8.41238 13.6435 8.13019 13.9916 8.13019Z" fill="#FFFFFF"/>
<path d="M12.9604 5.65125H18.3385C18.6866 5.65125 18.9688 5.93339 18.9688 6.28148C18.9688 6.6296 18.6866 6.91171 18.3385 6.91171H12.9604C12.6122 6.91171 12.3301 6.62957 12.3301 6.28148C12.3301 5.93339 12.6122 5.65125 12.9604 5.65125Z" fill="#FFFFFF"/>
</svg>
