<svg viewBox="0 0 20 20" fill="none" xmlns="http://www.w3.org/2000/svg">
<path d="M17.0703 2.92967C15.1859 1.09955 12.6571 0.0844026 10.0303 0.1036C7.40352 0.122797 4.88978 1.1748 3.03232 3.03227C1.17486 4.88973 0.122858 7.40347 0.103661 10.0303C0.0844637 12.657 1.09961 15.1859 2.92973 17.0703C4.20753 18.3466 5.80671 19.2536 7.55791 19.6952C9.30911 20.1368 11.1471 20.0966 12.8774 19.5789C13.1244 19.5036 13.3315 19.3335 13.4534 19.1058C13.5753 18.8781 13.6021 18.6115 13.5278 18.3641C13.4536 18.1168 13.2845 17.9089 13.0574 17.786C12.8303 17.6631 12.5637 17.6351 12.316 17.7082C11.5647 17.9333 10.7844 18.0474 10 18.0469C5.56293 18.0469 1.95317 14.4371 1.95317 9.99998C1.95317 5.56287 5.56293 1.95311 10 1.95311C14.4371 1.95311 18.0469 5.56287 18.0469 9.99998C18.0497 11.5685 17.592 13.1033 16.7305 14.414C16.592 14.6305 16.5444 14.8927 16.598 15.144C16.6516 15.3953 16.8021 15.6153 17.0167 15.7564C17.2314 15.8975 17.4931 15.9483 17.745 15.8978C17.9969 15.8474 18.2188 15.6996 18.3625 15.4867C19.6231 13.564 20.1828 11.2657 19.9475 8.9786C19.7121 6.69154 18.6961 4.55538 17.0703 2.92967Z" fill="#E21F25"/>
<path d="M9.02344 5.23438V11.4453C9.02344 11.7043 9.12632 11.9527 9.30947 12.1358C9.49261 12.319 9.741 12.4219 10 12.4219C10.259 12.4219 10.5074 12.319 10.6905 12.1358C10.8737 11.9527 10.9766 11.7043 10.9766 11.4453V5.23438C10.9766 4.97537 10.8737 4.72698 10.6905 4.54384C10.5074 4.3607 10.259 4.25781 10 4.25781C9.741 4.25781 9.49261 4.3607 9.30947 4.54384C9.12632 4.72698 9.02344 4.97537 9.02344 5.23438Z" fill="#E21F25"/>
<path d="M10 15.7422C9.80686 15.7422 9.61805 15.6849 9.45745 15.5776C9.29686 15.4703 9.17169 15.3178 9.09778 15.1393C9.02386 14.9609 9.00452 14.7645 9.0422 14.5751C9.07988 14.3857 9.17289 14.2117 9.30947 14.0751C9.44604 13.9385 9.62005 13.8455 9.80949 13.8078C9.99892 13.7701 10.1953 13.7895 10.3737 13.8634C10.5522 13.9373 10.7047 14.0625 10.812 14.2231C10.9193 14.3837 10.9766 14.5725 10.9766 14.7656C10.9766 15.0246 10.8737 15.273 10.6905 15.4562C10.5074 15.6393 10.259 15.7422 10 15.7422Z" fill="#E21F25"/>
</svg>
